<svg xmlns="http://www.w3.org/2000/svg" viewBox="0 0 512 512" role="img" aria-labelledby="title desc">
  <title id="title">Yunrui Guo personal logo</title>
  <desc id="desc">Circular YG logo with quantitative AI graph lines and abstract cat and mouse contour motion.</desc>
  <defs>
    <linearGradient id="outer" x1="78" x2="434" y1="60" y2="452" gradientUnits="userSpaceOnUse">
      <stop offset="0" stop-color="#0f766e"/>
      <stop offset="0.48" stop-color="#d9a441"/>
      <stop offset="1" stop-color="#b95c38"/>
    </linearGradient>
    <radialGradient id="paper" cx="38%" cy="28%" r="76%">
      <stop offset="0" stop-color="#fffdf7"/>
      <stop offset="1" stop-color="#eee6d7"/>
    </radialGradient>
    <filter id="soft-shadow" x="-18%" y="-18%" width="136%" height="136%">
      <feDropShadow dx="0" dy="15" stdDeviation="17" flood-color="#182126" flood-opacity="0.18"/>
    </filter>
  </defs>

  <rect width="512" height="512" rx="112" fill="#f5f2ec"/>
  <circle cx="256" cy="256" r="212" fill="url(#paper)" stroke="url(#outer)" stroke-width="18" filter="url(#soft-shadow)"/>
  <circle cx="256" cy="256" r="178" fill="none" stroke="#ffffff" stroke-width="10" opacity="0.7"/>

  <g stroke="#1e2b2f" stroke-width="3" opacity="0.16">
    <path d="M138 150h236M122 206h268M118 262h274M138 318h238M174 126v260M230 110v292M286 112v286M342 134v238"/>
    <path d="M148 336c44-75 74-94 115-62 31 25 51 17 95-62" fill="none" stroke-width="5" opacity="0.34"/>
  </g>

  <g fill="none" stroke-linecap="round" stroke-linejoin="round">
    <path d="M158 214c-25-24-19-66 15-83 29-15 61 1 66 33 23-30 75-24 91 14 31-6 59 17 60 49 1 33-27 57-59 54" stroke="#0f766e" stroke-width="18"/>
    <path d="M151 264c-31 10-49 44-36 74 14 34 53 47 83 27 12 34 53 48 84 25" stroke="#d9a441" stroke-width="18"/>
    <path d="M225 386c34 18 79 1 91-37 34 6 67-21 65-57-1-27-20-47-45-55" stroke="#4967d8" stroke-width="18"/>
    <path d="M258 152c24 12 37 37 32 66m-92 36c31-8 59 6 73 34m75-91c-24 17-34 44-28 75" stroke="#b95c38" stroke-width="18"/>
    <path d="M160 188c37 6 61 29 69 65m35 30c33-14 75 0 90 33m-90-112c-18 29-16 60 5 91" stroke="#cf4da8" stroke-width="18" opacity="0.9"/>
  </g>

  <g fill="none" stroke-linecap="round" stroke-linejoin="round">
    <path d="M142 169c18-31 52-47 84-38l-25-30 58 35" stroke="#1e2b2f" stroke-width="8" opacity="0.88"/>
    <path d="M369 356c24-6 40-25 42-47 1-15-7-25-20-28-15-3-27 9-23 24 4 16 24 23 44 11" stroke="#1e2b2f" stroke-width="8" opacity="0.82"/>
    <path d="M345 372c22 8 48 5 69-8" stroke="#b95c38" stroke-width="7" opacity="0.95"/>
  </g>

  <g fill="#182126">
    <circle cx="170" cy="206" r="13"/>
    <circle cx="238" cy="153" r="12"/>
    <circle cx="321" cy="177" r="12"/>
    <circle cx="388" cy="232" r="12"/>
    <circle cx="155" cy="351" r="12"/>
    <circle cx="255" cy="394" r="13"/>
    <circle cx="326" cy="354" r="12"/>
    <circle cx="244" cy="282" r="11"/>
  </g>

  <g fill="#1e2b2f" opacity="0.82">
    <text x="150" y="152" font-family="Inter, Segoe UI, Arial, sans-serif" font-size="31" font-weight="800">Σ</text>
    <text x="326" y="181" font-family="Inter, Segoe UI, Arial, sans-serif" font-size="25" font-weight="800">x²</text>
    <text x="365" y="338" font-family="Inter, Segoe UI, Arial, sans-serif" font-size="25" font-weight="800">π</text>
  </g>

  <g>
    <circle cx="256" cy="296" r="77" fill="#fffdfa" opacity="0.92"/>
    <text x="256" y="323" text-anchor="middle" font-family="Inter, Segoe UI, Arial, sans-serif" font-size="82" font-weight="900" fill="#1e2b2f">YG</text>
  </g>
</svg>
