<svg xmlns="http://www.w3.org/2000/svg" viewBox="0 0 512 512" role="img" aria-labelledby="title desc">
  <title id="title">Yunrui Guo personal logo</title>
  <desc id="desc">A circular personal logo with an abstract colorful neural mark and YG initials.</desc>
  <defs>
    <linearGradient id="outer" x1="80" x2="432" y1="64" y2="448" gradientUnits="userSpaceOnUse">
      <stop offset="0" stop-color="#0f766e"/>
      <stop offset="0.52" stop-color="#d9a441"/>
      <stop offset="1" stop-color="#b95c38"/>
    </linearGradient>
    <radialGradient id="paper" cx="38%" cy="28%" r="72%">
      <stop offset="0" stop-color="#fffdf7"/>
      <stop offset="1" stop-color="#efe8da"/>
    </radialGradient>
    <filter id="soft-shadow" x="-20%" y="-20%" width="140%" height="140%">
      <feDropShadow dx="0" dy="14" stdDeviation="18" flood-color="#182126" flood-opacity="0.18"/>
    </filter>
  </defs>

  <rect width="512" height="512" rx="112" fill="#f5f2ec"/>
  <circle cx="256" cy="256" r="212" fill="url(#paper)" stroke="url(#outer)" stroke-width="18" filter="url(#soft-shadow)"/>
  <circle cx="256" cy="256" r="178" fill="none" stroke="#ffffff" stroke-width="10" opacity="0.72"/>

  <g fill="none" stroke-linecap="round" stroke-linejoin="round" stroke-width="18">
    <path d="M172 206c-30-18-33-58-4-80 28-21 66-5 70 28 25-27 72-16 82 22 29-8 62 12 66 45 4 34-22 61-55 61" stroke="#0f766e"/>
    <path d="M158 252c-30 4-54 30-50 62 4 34 36 55 68 45 9 35 48 53 81 35" stroke="#d9a441"/>
    <path d="M252 152c24 12 36 35 32 63m-90 39c30-7 55 5 70 31m76-85c-24 16-34 42-28 74" stroke="#b95c38"/>
    <path d="M228 386c32 18 77 5 92-32 34 8 68-17 70-53 1-27-16-50-40-59" stroke="#4967d8"/>
    <path d="M162 188c36 6 59 28 67 62m34 31c32-14 72-1 88 30m-89-111c-18 28-16 58 4 88" stroke="#cf4da8" opacity="0.92"/>
  </g>

  <g fill="#182126">
    <circle cx="170" cy="206" r="13"/>
    <circle cx="234" cy="153" r="12"/>
    <circle cx="321" cy="177" r="12"/>
    <circle cx="388" cy="232" r="12"/>
    <circle cx="155" cy="351" r="12"/>
    <circle cx="255" cy="394" r="13"/>
    <circle cx="326" cy="354" r="12"/>
    <circle cx="244" cy="282" r="11"/>
  </g>

  <g>
    <circle cx="256" cy="296" r="74" fill="#fffdfa" opacity="0.9"/>
    <text x="256" y="323" text-anchor="middle" font-family="Inter, Segoe UI, Arial, sans-serif" font-size="82" font-weight="900" fill="#1e2b2f">YG</text>
  </g>
</svg>
