<svg xmlns="http://www.w3.org/2000/svg" viewBox="0 0 512 512" role="img" aria-labelledby="title desc">
  <title id="title">Yunrui Guo cat logo</title>
  <desc id="desc">Minimal white cat silhouette in a warm peach circle for Yunrui Guo's personal website.</desc>
  <rect width="512" height="512" rx="112" fill="#fffdfa"/>
  <circle cx="256" cy="256" r="215" fill="#ffb196"/>
  <path d="M92 356c13-8 25-11 39-11-12-13-18-25-15-36 4-15 16-30 37-44l-21-87c-29-42-37-59-23-65 9-4 21-4 35-1l36-43 43-15 4-47c1-12 10-15 20-7l53 54c26 29 46 44 61 48 27 6 38 19 39 38 1 13-4 25-15 37 49-1 96 2 141 9 7-17 9-44 10-81 1-47 15-59 39-43 33 22 39 89 14 133-8 14-20 27-35 39l46 70c22 16 31 32 24 48h-84c-17-11-39-18-66-24-47-10-75-15-84-15-13 0-32 2-58 7-33 6-67 9-102 10-27 2-53 7-78 15l-42 12H92Z" fill="#fffdfa"/>
  <g fill="none" stroke="#ffb196" stroke-linecap="round" stroke-linejoin="round" stroke-width="6">
    <path d="M151 278h-17"/>
    <path d="M152 292l-14 10"/>
    <path d="M205 242l12 9"/>
    <path d="M276 210l19-13"/>
    <path d="M286 218l21 3"/>
  </g>
  <g fill="#ffb196">
    <circle cx="187" cy="245" r="20"/>
    <circle cx="235" cy="201" r="20"/>
  </g>
  <g fill="#fffdfa">
    <ellipse cx="188" cy="246" rx="10" ry="14" transform="rotate(-22 188 246)"/>
    <ellipse cx="236" cy="201" rx="10" ry="13" transform="rotate(42 236 201)"/>
  </g>
  <g fill="#e71921">
    <circle cx="376" cy="140" r="7"/>
    <circle cx="378" cy="166" r="7"/>
  </g>
</svg>
