<svg xmlns="http://www.w3.org/2000/svg" viewBox="0 0 512 512" role="img" aria-labelledby="title desc">
  <title id="title">Yunrui Guo cat logo</title>
  <desc id="desc">Minimal cheerful white cat silhouette in a vivid orange circle for Yunrui Guo's personal website.</desc>
  <rect width="512" height="512" rx="112" fill="#fffdfa"/>
  <circle cx="256" cy="256" r="215" fill="#ff9466"/>
  <path d="M89 358c15-9 29-13 45-13-14-13-21-27-18-39 4-16 18-31 39-44l-22-84c-29-41-37-58-23-65 9-5 22-4 38 1 9-15 22-30 38-43 12-10 26-17 42-21l5-42c2-12 11-15 22-7l50 51c26 28 47 43 64 47 26 7 38 21 39 40 1 13-4 26-16 39 51-2 98 1 141 8 9-20 11-48 12-84 1-47 15-59 39-43 31 22 37 87 13 130-9 16-23 31-41 43l45 68c20 15 28 30 22 45h-84c-17-10-40-18-69-24-44-10-72-15-84-15-13 0-32 3-58 7-34 6-68 10-103 11-29 1-57 6-84 14l-42 13H89Z" fill="#fffdfa"/>
  <g fill="none" stroke="#ff9466" stroke-linecap="round" stroke-linejoin="round" stroke-width="6">
    <path d="M153 276c-7 1-14 1-20-1"/>
    <path d="M155 291c-6 4-12 8-18 12"/>
    <path d="M207 242c5 2 10 6 13 10"/>
    <path d="M278 210c7-4 14-9 20-14"/>
    <path d="M288 219c7 1 14 2 22 2"/>
    <path d="M199 270c11 13 28 14 39 2"/>
  </g>
  <g fill="#ff9466">
    <circle cx="188" cy="245" r="20"/>
    <circle cx="236" cy="201" r="20"/>
    <circle cx="168" cy="263" r="5" opacity="0.55"/>
    <circle cx="262" cy="219" r="5" opacity="0.55"/>
  </g>
  <g fill="#fffdfa">
    <ellipse cx="188" cy="246" rx="10" ry="14" transform="rotate(-22 188 246)"/>
    <ellipse cx="236" cy="201" rx="10" ry="13" transform="rotate(42 236 201)"/>
  </g>
  <g fill="#e71921">
    <circle cx="376" cy="140" r="7"/>
    <circle cx="378" cy="166" r="7"/>
  </g>
</svg>
