<svg xmlns="http://www.w3.org/2000/svg" viewBox="0 0 512 512" role="img" aria-labelledby="title desc">
  <title id="title">Yunrui Guo cat logo</title>
  <desc id="desc">Minimal cheerful classic cartoon cat silhouette in a vivid orange circle for Yunrui Guo's personal website.</desc>
  <rect width="512" height="512" rx="112" fill="#fffdfa"/>
  <circle cx="256" cy="256" r="215" fill="#ff9466"/>
  <path d="M94 356c12-10 27-16 46-17-11-14-14-30-8-45 7-19 25-34 53-46l-15-77c-28-33-37-51-27-61 9-9 28-8 56 4 10-15 24-28 42-37 17-9 35-13 55-12l23-39c7-12 19-12 27 0l34 49c20 9 37 23 50 41 14 21 16 44 5 66 40-2 75 0 105 6 8-18 12-42 12-72 1-49 16-63 42-44 27 21 33 70 18 112-9 25-27 47-53 65 13 20 26 41 40 62 18 13 27 26 25 40h-82c-21-13-50-23-86-29-36-7-65-10-88-10-17 0-44 3-80 9-38 7-75 11-113 11-33 0-62 3-87 9l-49 14Z" fill="#fffdfa"/>
  <path d="M386 225c39-17 64-46 72-84 6-29 0-56-15-70-10-10-23-10-33 0-15 15-19 45-19 82-1 31-8 54-22 69 6 2 12 3 17 3Z" fill="#fffdfa"/>
  <ellipse cx="434" cy="177" rx="31" ry="76" transform="rotate(18 434 177)" fill="#fffdfa"/>
  <path d="M98 364c45-14 102-22 171-24 45-1 87-7 126-16 22-5 47-6 73-3 36 4 69 14 98 30-44-4-88-6-133-4-55 1-111 6-167 13-62 7-118 8-168 4Z" fill="#fffdfa"/>
  <g transform="rotate(-24 238 238)">
    <g fill="none" stroke="#ff9466" stroke-linecap="round" stroke-linejoin="round" stroke-width="6">
      <path d="M194 267c-17 0-33 4-48 13"/>
      <path d="M196 281c-15 6-29 16-41 29"/>
      <path d="M282 267c17 0 33 4 48 13"/>
      <path d="M280 281c15 6 29 16 41 29"/>
    </g>
    <g fill="#ff9466">
      <ellipse cx="213" cy="228" rx="20" ry="24"/>
      <ellipse cx="267" cy="228" rx="20" ry="24"/>
    </g>
    <g fill="#fffdfa">
      <ellipse cx="218" cy="223" rx="8" ry="12"/>
      <ellipse cx="262" cy="223" rx="8" ry="12"/>
      <circle cx="207" cy="217" r="4"/>
      <circle cx="273" cy="217" r="4"/>
    </g>
  </g>
</svg>
